# xmcd
# 
# Track frame offsets:
#     150
#     25082
#     53830
#     74690
#     109967
#     130782
#     148735
#     174700
#     198697
# 
# Disc length: 3011
# 
# Revision: 0
# Processed by: cddbd v1.5.2PL0 Copyright (c) Steve Scherf et al.
# Submitted via: BonkEnc v1.0
# 
DISCID=8c0bc109
DTITLE=さだまさし - 印象派
DYEAR=1991
DGENRE=Pop
TTITLE0=距離
TTITLE1=検察側の証人
TTITLE2=聖野菜祭
TTITLE3=みるくは風になった
TTITLE4=たずねびと
TTITLE5=推理小説
TTITLE6=0-15
TTITLE7=神話
TTITLE8=博物館
EXTD=
EXTT0=
EXTT1=
EXTT2=
EXTT3=
EXTT4=
EXTT5=
EXTT6=
EXTT7=
EXTT8=
PLAYORDER=
